HIERARCHY
ROOT Hips
{
    OFFSET 0.000000 0.000000 0.000000
    CHANNELS 6 Xposition Yposition Zposition Zrotation Xrotation Yrotation
    JOINT Spine
    {
        OFFSET -0.000000 7.246840 0.000000
        CHANNELS 3 Zrotation Xrotation Yrotation
        JOINT Spine1
        {
            OFFSET -0.000000 20.289354 0.000000
            CHANNELS 3 Zrotation Xrotation Yrotation
            JOINT Neck
            {
                OFFSET -0.000000 20.206032 1.836912
                CHANNELS 3 Zrotation Xrotation Yrotation
                JOINT Head
                {
                    OFFSET -0.000000 12.372654 -1.767522
                    CHANNELS 3 Zrotation Xrotation Yrotation
                    End Site
                    {
                        OFFSET -0.000000 22.094025 0.000000
                    }
                }
            }
            JOINT LeftShoulder
            {
                OFFSET 3.465871 17.201674 -0.568930
                CHANNELS 3 Zrotation Xrotation Yrotation
                JOINT LeftArm
                {
                    OFFSET 14.070313 0.000000 0.000000
                    CHANNELS 3 Zrotation Xrotation Yrotation
                    JOINT LeftForeArm
                    {
                        OFFSET 26.549477 0.000000 0.000000
                        CHANNELS 3 Zrotation Xrotation Yrotation
                        JOINT LeftHand
                        {
                            OFFSET 18.880413 0.000000 0.000000
                            CHANNELS 3 Zrotation Xrotation Yrotation
                            End Site
                            {
                                OFFSET 13.256415 0.000000 0.000000
                            }
                        }
                    }
                }
            }
            JOINT RightShoulder
            {
                OFFSET -3.526370 17.201674 -0.568930
                CHANNELS 3 Zrotation Xrotation Yrotation
                JOINT RightArm
                {
                    OFFSET -14.070313 0.000000 0.000000
                    CHANNELS 3 Zrotation Xrotation Yrotation
                    JOINT RightForeArm
                    {
                        OFFSET -26.549477 0.000000 0.000000
                        CHANNELS 3 Zrotation Xrotation Yrotation
                        JOINT RightHand
                        {
                            OFFSET -18.880413 0.000000 0.000000
                            CHANNELS 3 Zrotation Xrotation Yrotation
                            End Site
                            {
                                OFFSET -13.256415 0.000000 0.000000
                            }
                        }
                    }
                }
            }
        }
    }
    JOINT LeftUpLeg
    {
        OFFSET 8.837609 0.000000 0.000000
        CHANNELS 3 Zrotation Xrotation Yrotation
        JOINT LeftLeg
        {
            OFFSET -0.000000 -41.345005 0.000000
            CHANNELS 3 Zrotation Xrotation Yrotation
            JOINT LeftFoot
            {
                OFFSET -0.000000 -35.500874 0.000000
                CHANNELS 3 Zrotation Xrotation Yrotation
                JOINT LeftToeBase
                {
                    OFFSET -0.000000 -5.744446 13.256415
                    CHANNELS 3 Zrotation Xrotation Yrotation
                    End Site
                    {
                        OFFSET -0.000000 0.000000 3.535044
                    }
                }
            }
        }
    }
    JOINT RightUpLeg
    {
        OFFSET -8.837609 0.000000 0.000000
        CHANNELS 3 Zrotation Xrotation Yrotation
        JOINT RightLeg
        {
            OFFSET -0.000000 -41.345005 0.000000
            CHANNELS 3 Zrotation Xrotation Yrotation
            JOINT RightFoot
            {
                OFFSET -0.000000 -35.500874 0.000000
                CHANNELS 3 Zrotation Xrotation Yrotation
                JOINT RightToeBase
                {
                    OFFSET -0.000000 -5.744446 13.256415
                    CHANNELS 3 Zrotation Xrotation Yrotation
                    End Site
                    {
                        OFFSET -0.000000 0.000000 3.535044
                    }
                }
            }
        }
    }
}
MOTION
Frames:    7
Frame Time:    0.010000
3.339966    82.405800    -62.006634    3.735863    2.795024    -1.672567    -4.006327    -14.914742    -1.045112    -1.439685    2.536598    -0.488652    4.406863    31.982384    -2.086536    2.060557    -13.974983    -0.945548    19.307972    0.659319    6.104034    -34.631439    5.300235    -11.745947    6.716383    -6.631434    -5.727094    -36.043896    -6.488292    0.590886    -16.580929    2.657591    10.934014    14.654728    7.220171    12.855627    -4.266007    -7.316861    4.315731    6.990684    -6.072837    17.731028    -2.824520    7.495863    2.441762    -1.595616    -9.453569    -3.254745    2.276138    1.879862    -0.242874    0.040937    -0.694201    -0.057549    -9.999852    7.408987    1.571002    7.417027    -10.135429    2.072175    0.225300    -1.807912    -10.503284    -0.503398    0.043101    0.902322    
3.335689    82.404205    -62.010563    3.755606    2.785816    -1.713423    -4.160521    -14.916891    -1.106102    -1.150469    2.596112    -0.535086    4.378208    31.974651    -2.030303    1.720588    -14.082409    -0.979006    19.318602    0.674649    6.219794    -34.266678    5.269516    -11.897407    6.742055    -6.810012    -5.798193    -35.769230    -6.609732    0.434358    -16.529860    2.482955    11.059181    15.233006    7.154325    12.735904    -4.183434    -7.385573    4.041874    7.171109    -6.127217    17.722694    -2.834363    7.494480    2.467721    -1.590918    -9.449499    -3.384290    2.089259    1.832907    -0.113932    0.064391    -0.635067    -0.090488    -10.017921    7.421408    1.579292    7.426054    -10.160636    2.076166    0.246119    -1.808664    -10.473925    -0.494807    0.060264    0.886760    
3.332800    82.401840    -62.015297    3.773992    2.775271    -1.750474    -4.299572    -14.908096    -1.164629    -0.885433    2.638895    -0.581390    4.203833    31.973120    -1.963205    1.611246    -14.170858    -0.963929    19.333714    0.710199    6.338375    -33.839005    5.396926    -12.049276    6.717478    -7.064564    -5.930834    -35.287964    -6.844895    0.399547    -16.478106    2.346580    11.188636    15.714431    7.248728    12.583302    -4.055821    -7.494217    3.867992    7.433408    -6.213915    17.602007    -2.845414    7.496449    2.463836    -1.617397    -9.428069    -3.268243    2.238273    1.860308    -0.198776    0.028670    -0.857333    -0.040344    -10.031239    7.438143    1.581674    7.411186    -10.204854    2.095254    0.258077    -1.803530    -10.458658    -0.494252    0.088347    0.885497    
3.333600    82.400467    -62.019730    3.797043    2.757354    -1.783711    -4.424814    -14.890546    -1.220693    -0.644484    2.677155    -0.627122    4.146502    32.017445    -1.868919    1.317742    -14.290852    -0.948567    19.340109    0.742118    6.465290    -33.336006    5.708814    -12.187592    6.674772    -7.399827    -6.131217    -34.855412    -7.117332    0.232825    -16.432085    2.183943    11.331639    16.264666    7.210838    12.415937    -4.023526    -7.498448    3.697003    7.913782    -6.159354    17.482538    -2.854108    7.494623    2.457163    -1.634204    -9.388421    -3.317727    2.192014    1.851875    -0.139924    0.036232    -0.710009    -0.050940    -10.058393    7.461069    1.622681    7.416361    -10.240794    2.070891    0.207363    -1.782869    -10.445672    -0.507637    0.080095    0.909558    
3.332392    82.398895    -62.025368    3.817302    2.741529    -1.812456    -4.546007    -14.872442    -1.270828    -0.415769    2.709551    -0.667361    4.003401    32.141552    -1.852522    1.242442    -14.533519    -0.966009    19.359434    0.764107    6.579103    -32.801880    6.132277    -12.326681    6.807299    -7.783815    -6.164310    -34.854031    -7.354301    -0.211310    -16.381733    2.050299    11.454714    16.777439    7.196221    12.256790    -3.975023    -7.451569    3.520074    8.099177    -6.108225    17.250622    -2.868364    7.488643    2.526679    -1.653706    -9.348267    -3.384295    2.198149    1.819319    -0.125595    0.023342    -0.831412    -0.032841    -10.071562    7.477512    1.593767    7.408154    -10.258430    2.096651    0.204632    -1.786910    -10.439122    -0.536548    0.104313    0.961107    
3.335956    82.397606    -62.030674    3.832367    2.720913    -1.840732    -4.647297    -14.855177    -1.309439    -0.194323    2.753778    -0.698556    3.233446    31.840412    -1.663192    2.025552    -14.130513    -0.699566    19.367964    0.741964    6.669012    -32.279282    6.536726    -12.441072    6.786335    -7.976737    -6.420225    -34.540401    -7.529997    -0.224582    -16.345249    1.991038    11.537107    17.215443    7.160818    12.152223    -3.831340    -7.348926    3.294219    8.137229    -6.003397    17.361668    -2.873885    7.482876    2.535263    -1.661047    -9.304980    -3.485520    2.191201    1.799195    -0.058010    0.003399    -0.736617    -0.004780    -10.093751    7.500201    1.618422    7.405242    -10.286757    2.118387    0.208195    -1.786984    -10.459034    -0.540066    0.110262    0.967346    
3.338858    82.396027    -62.035351    3.842297    2.706469    -1.865452    -4.741175    -14.834669    -1.342080    0.020498    2.776804    -0.725074    3.063088    31.932077    -1.690734    2.022999    -14.324273    -0.749007    19.390320    0.757248    6.759543    -31.897848    6.493969    -12.638050    6.814592    -7.936594    -6.546236    -34.071045    -7.459590    -0.297607    -16.295021    1.910683    11.606233    17.603048    7.256207    12.027909    -3.695768    -7.221615    3.150833    8.111723    -5.891185    17.319368    -2.879951    7.479811    2.527507    -1.693511    -9.264411    -3.346140    2.220585    1.763368    -0.112819    0.025428    -0.700093    -0.035747    -10.106555    7.519455    1.629123    7.396619    -10.327164    2.136449    0.222394    -1.761137    -10.458584    -0.521681    0.129365    0.934225    
